<svg t="1735269773713" class="icon" viewBox="0 0 1024 1024" version="1.1" xmlns="http://www.w3.org/2000/svg" p-id="6238" width="200" height="200"><path d="M768.097681 184.192165A55.873452 55.873452 0 1 1 823.971133 128.318713 55.873452 55.873452 0 0 1 768.097681 184.192165zM568.062194 896.04553A55.873452 55.873452 0 1 1 512.188742 840.172079 55.873452 55.873452 0 0 1 568.062194 896.04553zM200.406351 128.318713A55.873452 55.873452 0 1 1 256.279803 184.192165 55.873452 55.873452 0 0 1 200.406351 128.318713zM896.052151 128.318713a127.95447 127.95447 0 1 0-163.781721 122.836291v127.95447L512.188742 597.485102 291.680539 378.682959v-127.95447a127.95447 127.95447 0 1 0-72.081017 0v156.957483l255.908939 255.908939v108.334784a127.95447 127.95447 0 1 0 72.081018 0v-107.481754l255.908939-255.908939V251.155004A127.95447 127.95447 0 0 0 896.052151 128.318713z" fill="#5E5C5C" p-id="6239"></path></svg>