<?xml version="1.0" standalone="no"?>
<!DOCTYPE svg PUBLIC "-//W3C//DTD SVG 1.1//EN" "http://www.w3.org/Graphics/SVG/1.1/DTD/svg11.dtd"><svg t="1692838118357"
  class="icon" viewBox="0 0 1024 1024" version="1.1" xmlns="http://www.w3.org/2000/svg" p-id="5180"
  xmlns:xlink="http://www.w3.org/1999/xlink" width="200" height="200">
  <path
    d="M743.695 173.724q17.408-17.408 36.864-20.48 19.456-3.072 36.352 6.656 16.896 9.728 28.16 30.72 11.264 20.992 11.264 51.712v461.824q0 27.648-9.728 52.736-9.728 25.088-26.112 43.52-16.384 18.432-38.912 29.184-22.528 10.752-48.128 10.752-59.392 0-122.88-0.512-63.488-0.512-126.976-0.512t-124.416-0.512q-60.928-0.512-116.224-0.512-26.624 0-45.056-11.264t-27.136-27.648q-8.704-16.384-5.632-36.352 3.072-19.968 20.48-36.352 19.456-19.456 50.688-50.176 31.232-30.72 70.144-69.12 38.912-38.4 82.432-81.92t87.552-87.04q44.032-43.52 86.528-85.504 42.496-41.984 77.824-77.312 35.328-35.328 62.464-61.952 27.136-26.624 40.448-39.936z"
    p-id="5181" fill="var(--color-1)"></path>
</svg>