<?xml version="1.0" standalone="no"?><!DOCTYPE svg PUBLIC "-//W3C//DTD SVG 1.1//EN" "http://www.w3.org/Graphics/SVG/1.1/DTD/svg11.dtd"><svg height="1024" node-id="1" sillyvg="true" template-height="1024" template-width="1024" version="1.1" viewBox="0 0 1024 1024" width="1024" xmlns="http://www.w3.org/2000/svg" xmlns:xlink="http://www.w3.org/1999/xlink"><defs node-id="46"><clipPath id="clip-花卉" node-id="3"><path d="M 0.00 0.00 L 1024.00 0.00 L 1024.00 1024.00 L 0.00 1024.00 Z" fill="#000000" fill-rule="nonzero" node-id="49" stroke="none" target-height="1024" target-width="1024" target-x="0" target-y="0"></path></clipPath></defs><g clip-path="url(#clip-花卉)" id="花卉" node-id="5"><path d="M 0.00 0.00 L 1024.00 0.00 L 1024.00 1024.00 L 0.00 1024.00 Z" fill="#ffffff" fill-rule="nonzero" node-id="54" stroke="none" target-height="1024" target-width="1024" target-x="0" target-y="0"></path><path d="M 464.70 620.29 L 463.30 611.76 L 459.75 587.48 L 457.57 570.84 L 455.02 549.45 L 452.58 526.54 L 450.08 499.64 L 447.88 471.48 L 445.90 440.05 L 444.86 418.72 L 444.04 396.27 L 443.46 372.66 L 443.19 349.08 L 443.27 324.69 L 443.72 299.47 L 444.56 274.28 L 445.87 248.61 L 447.65 222.44 L 449.93 196.32 L 452.79 170.04 L 456.23 143.58 L 453.59 176.96 L 451.58 209.15 L 450.16 240.19 L 449.22 271.30 L 448.76 300.95 L 448.75 329.21 L 449.13 357.49 L 449.82 384.06 L 450.81 408.99 L 452.82 445.63 L 455.16 477.93 L 457.90 508.62 L 460.60 534.38 L 463.48 558.32 L 465.96 576.72 L 468.40 593.11 L 470.05 603.31 L 471.68 612.54 Z" fill="#277c41" fill-rule="nonzero" group-id="1,9" id="路径_184" node-id="8" stroke="none" target-height="476.7119" target-width="28.483398" target-x="443.19238" target-y="143.58203"></path><path d="M 446.05 268.29 L 439.47 263.54 L 433.13 259.21 L 426.86 255.15 L 421.21 251.66 L 411.33 246.03 L 407.24 243.94 L 404.53 242.71 L 402.41 241.61 L 400.49 240.22 L 398.77 238.52 L 397.33 236.59 L 396.28 234.59 L 395.61 232.49 L 395.38 230.34 L 395.68 228.30 L 396.53 226.29 L 397.88 224.53 L 399.51 223.11 L 401.47 222.02 L 403.61 221.32 L 405.92 221.03 L 408.43 221.17 L 410.88 221.75 L 413.37 222.84 L 415.96 224.51 L 422.53 229.71 L 426.27 233.13 L 430.51 237.75 L 433.16 241.12 L 435.90 245.21 L 438.73 250.11 L 441.21 255.16 L 443.66 261.18 L 446.05 268.29 Z" fill="#277c41" fill-rule="nonzero" group-id="1,10" id="路径_185" node-id="9" stroke="none" target-height="47.255783" target-width="50.669678" target-x="395.38187" target-y="221.03151"></path><path d="M 446.05 268.29 L 439.47 263.54 L 433.13 259.21 L 426.86 255.15 L 421.21 251.66 L 411.33 246.03 L 407.24 243.94 L 404.53 242.71 L 402.41 241.61 L 400.49 240.22 L 398.77 238.52 L 397.33 236.59 L 396.28 234.59 L 395.61 232.49 L 395.38 230.34 L 395.68 228.30 L 396.53 226.29 L 397.88 224.53 L 399.51 223.11 L 401.47 222.02 L 403.61 221.32 L 405.92 221.03 L 408.43 221.17 L 410.88 221.75 L 413.37 222.84 L 415.96 224.51 L 422.53 229.71 L 426.27 233.13 L 430.51 237.75 L 433.16 241.12 L 435.90 245.21 L 438.73 250.11 L 441.21 255.16 L 443.66 261.18 L 446.05 268.29 Z" fill="#277c41" fill-rule="nonzero" group-id="1,11" id="路径_186" node-id="10" stroke="none" target-height="47.255783" target-width="50.669678" target-x="395.38187" target-y="221.03151"></path><path d="M 447.37 330.97 L 455.48 322.62 L 463.33 314.93 L 471.15 307.62 L 478.24 301.28 L 485.10 295.42 L 490.75 290.84 L 495.98 286.85 L 499.49 284.43 L 501.55 282.92 L 503.42 281.18 L 505.11 279.20 L 507.21 275.95 L 508.68 272.52 L 509.30 270.12 L 509.57 267.80 L 509.49 265.53 L 509.03 263.33 L 508.15 261.29 L 506.82 259.38 L 505.13 257.74 L 503.26 256.42 L 501.19 255.40 L 498.89 254.68 L 495.74 254.26 L 492.44 254.45 L 488.95 255.29 L 486.48 256.31 L 484.04 257.72 L 481.61 259.58 L 479.20 261.91 L 472.97 268.80 L 469.51 273.01 L 465.68 278.24 L 462.04 284.02 L 458.31 291.14 L 456.09 296.15 L 453.94 301.89 L 451.87 308.41 L 450.16 315.01 L 448.66 322.50 L 447.37 330.97 Z" fill="#277c41" fill-rule="nonzero" group-id="1,12" id="路径_187" node-id="11" stroke="none" target-height="76.710266" target-width="62.194183" target-x="447.37347" target-y="254.25876"></path><path d="M 450.37 448.62 L 458.48 440.27 L 466.33 432.57 L 474.15 425.26 L 481.24 418.92 L 488.10 413.07 L 493.75 408.49 L 498.98 404.50 L 502.49 402.08 L 504.55 400.56 L 506.42 398.83 L 508.11 396.85 L 510.21 393.60 L 511.68 390.17 L 512.30 387.77 L 512.57 385.45 L 512.49 383.18 L 512.03 380.97 L 511.15 378.94 L 509.82 377.03 L 508.13 375.39 L 506.26 374.07 L 504.19 373.05 L 501.89 372.33 L 498.74 371.91 L 495.44 372.10 L 491.95 372.94 L 489.48 373.95 L 487.04 375.37 L 484.61 377.22 L 482.20 379.56 L 475.97 386.45 L 472.51 390.65 L 468.68 395.89 L 465.04 401.67 L 461.31 408.79 L 459.09 413.80 L 456.94 419.53 L 454.87 426.06 L 453.16 432.66 L 451.66 440.15 L 450.37 448.62 Z" fill="#277c41" fill-rule="nonzero" group-id="1,13" id="路径_188" node-id="12" stroke="none" target-height="76.7103" target-width="62.194214" target-x="450.37347" target-y="371.90573"></path><path d="M 447.25 388.11 L 438.54 381.82 L 430.16 376.08 L 421.88 370.69 L 414.41 366.06 L 407.23 361.84 L 401.36 358.58 L 395.95 355.79 L 392.38 354.16 L 389.25 352.50 L 386.42 350.30 L 383.99 347.68 L 382.10 344.80 L 381.15 342.71 L 380.54 340.65 L 380.24 338.57 L 380.31 336.49 L 380.79 334.50 L 381.68 332.55 L 383.43 330.25 L 385.57 328.41 L 388.14 327.00 L 390.94 326.11 L 393.97 325.75 L 397.28 325.95 L 400.51 326.74 L 403.80 328.19 L 407.22 330.41 L 415.92 337.29 L 419.16 340.15 L 422.67 343.67 L 426.50 347.91 L 430.01 352.37 L 433.66 357.76 L 437.44 364.21 L 440.76 370.86 L 444.03 378.77 L 447.25 388.11 Z" fill="#277c41" fill-rule="nonzero" group-id="1,14" id="路径_189" node-id="13" stroke="none" target-height="62.365723" target-width="67.01001" target-x="380.2445" target-y="325.7483"></path><path d="M 447.25 388.11 L 438.54 381.82 L 430.16 376.08 L 421.88 370.69 L 414.41 366.06 L 407.23 361.84 L 401.36 358.58 L 395.95 355.79 L 392.38 354.16 L 389.25 352.50 L 386.42 350.30 L 383.99 347.68 L 382.10 344.80 L 381.15 342.71 L 380.54 340.65 L 380.24 338.57 L 380.31 336.49 L 380.79 334.50 L 381.68 332.55 L 383.43 330.25 L 385.57 328.41 L 388.14 327.00 L 390.94 326.11 L 393.97 325.75 L 397.28 325.95 L 400.51 326.74 L 403.80 328.19 L 407.22 330.41 L 415.92 337.29 L 419.16 340.15 L 422.67 343.67 L 426.50 347.91 L 430.01 352.37 L 433.66 357.76 L 437.44 364.21 L 440.76 370.86 L 444.03 378.77 L 447.25 388.11 Z" fill="#277c41" fill-rule="nonzero" group-id="1,15" id="路径_190" node-id="14" stroke="none" target-height="62.365723" target-width="67.01001" target-x="380.2445" target-y="325.7483"></path><path d="M 454.81 500.98 L 444.92 493.84 L 435.41 487.33 L 426.01 481.21 L 417.53 475.96 L 409.39 471.16 L 402.72 467.46 L 396.59 464.31 L 392.53 462.45 L 390.13 461.26 L 387.88 459.81 L 385.78 458.08 L 383.87 456.13 L 382.24 454.05 L 380.87 451.83 L 379.79 449.47 L 379.10 447.12 L 378.77 444.76 L 378.84 442.40 L 379.38 440.14 L 380.40 437.93 L 381.85 435.92 L 383.54 434.22 L 385.49 432.79 L 387.73 431.63 L 390.09 430.81 L 392.59 430.34 L 395.25 430.21 L 398.10 430.45 L 400.84 431.04 L 403.62 432.06 L 406.45 433.53 L 409.37 435.50 L 417.05 441.48 L 421.40 445.19 L 426.31 449.89 L 429.47 453.28 L 432.79 457.26 L 436.26 461.86 L 439.47 466.63 L 442.73 472.16 L 446.06 478.52 L 449.02 485.02 L 451.94 492.48 L 454.81 500.98 Z" fill="#277c41" fill-rule="nonzero" group-id="1,16" id="路径_191" node-id="15" stroke="none" target-height="70.77521" target-width="76.0423" target-x="378.76593" target-y="430.2078"></path><path d="M 454.31 200.63 L 453.42 192.21 L 453.10 187.56 L 452.95 182.84 L 453.04 178.17 L 453.43 173.97 L 453.92 171.24 L 454.58 168.96 L 455.40 167.06 L 456.51 165.39 L 457.83 164.25 L 459.38 163.56 L 461.04 163.46 L 462.62 163.91 L 464.19 164.97 L 465.56 166.39 L 466.93 168.27 L 468.31 170.68 L 470.09 174.53 L 471.79 178.99 L 474.69 188.20 L 477.07 196.61 L 477.99 200.80 L 478.33 204.39 L 478.17 207.49 L 477.52 210.51 L 476.50 213.01 L 475.13 215.06 L 473.39 216.79 L 471.41 218.06 L 469.16 218.90 L 468.47 219.06 L 466.25 219.13 L 464.16 218.62 L 462.13 217.48 L 460.35 215.91 L 458.69 213.79 L 457.14 211.02 L 455.96 208.07 L 455.01 204.63 L 454.31 200.63 Z M 484.98 193.79 L 480.00 186.94 L 477.40 183.08 L 474.90 179.06 L 472.65 174.98 L 470.89 171.14 L 469.95 168.54 L 469.38 166.23 L 469.13 164.18 L 469.26 162.17 L 469.84 160.52 L 470.84 159.16 L 472.22 158.23 L 473.81 157.84 L 475.70 157.97 L 477.60 158.52 L 479.72 159.46 L 482.12 160.86 L 485.59 163.31 L 489.29 166.32 L 496.41 172.84 L 502.67 178.93 L 505.57 182.10 L 507.66 185.05 L 509.07 187.81 L 510.02 190.75 L 510.38 193.42 L 510.22 195.88 L 509.58 198.25 L 508.50 200.34 L 506.97 202.20 L 505.71 203.23 L 504.31 203.96 L 502.74 204.40 L 500.82 204.52 L 498.77 204.24 L 496.54 203.53 L 494.09 202.31 L 491.15 200.26 L 488.12 197.46 L 484.98 193.79 Z M 426.70 216.19 L 425.04 215.53 L 423.64 214.60 L 422.48 213.39 L 421.52 211.87 L 420.67 209.61 L 420.22 206.91 L 420.21 203.67 L 420.64 200.44 L 421.54 196.88 L 422.98 192.94 L 426.41 185.20 L 428.46 181.01 L 430.69 176.84 L 433.10 172.85 L 435.54 169.40 L 437.32 167.29 L 439.04 165.64 L 440.70 164.40 L 442.50 163.51 L 444.21 163.19 L 445.90 163.37 L 447.40 164.11 L 448.54 165.29 L 449.36 167.00 L 449.84 168.91 L 450.09 171.22 L 450.07 174.00 L 449.69 178.23 L 448.93 182.94 L 446.84 192.36 L 444.69 200.83 L 443.57 204.45 L 442.29 207.44 L 440.88 209.89 L 439.34 211.87 L 437.47 213.67 L 435.58 214.99 L 433.66 215.90 L 431.69 216.43 L 429.18 216.58 L 426.70 216.19 Z M 508.37 171.00 L 500.63 167.57 L 496.45 165.52 L 492.28 163.29 L 488.29 160.88 L 484.85 158.44 L 482.73 156.66 L 481.08 154.94 L 479.85 153.28 L 478.95 151.48 L 478.63 149.77 L 478.81 148.08 L 479.55 146.59 L 480.73 145.45 L 482.43 144.62 L 484.35 144.15 L 486.66 143.90 L 489.43 143.91 L 493.66 144.29 L 498.37 145.05 L 507.80 147.14 L 516.27 149.29 L 520.36 150.58 L 523.64 152.08 L 526.24 153.77 L 528.54 155.85 L 530.18 157.98 L 531.28 160.18 L 531.90 162.56 L 532.02 164.91 L 531.62 167.28 L 530.99 168.91 L 530.08 170.29 L 528.89 171.45 L 527.48 172.36 L 525.82 173.07 L 523.86 173.57 L 520.61 173.83 L 516.76 173.50 L 512.80 172.59 L 508.38 171.00 Z M 394.26 191.23 L 393.15 189.83 L 392.41 188.33 L 392.00 186.70 L 391.94 184.90 L 392.33 182.52 L 393.29 179.96 L 394.90 177.14 L 396.88 174.57 L 399.44 171.93 L 402.66 169.23 L 409.51 164.25 L 413.37 161.65 L 417.39 159.15 L 421.47 156.90 L 425.31 155.14 L 427.91 154.20 L 430.22 153.63 L 432.28 153.39 L 434.28 153.52 L 435.93 154.09 L 437.30 155.09 L 438.22 156.48 L 438.62 158.07 L 438.48 159.96 L 437.93 161.85 L 437.00 163.98 L 435.60 166.38 L 433.15 169.85 L 430.14 173.55 L 423.61 180.66 L 417.52 186.93 L 414.21 189.95 L 411.12 192.08 L 407.93 193.62 L 405.00 194.42 L 403.03 194.66 L 401.11 194.58 L 399.23 194.18 L 397.43 193.49 L 395.78 192.51 L 394.26 191.23 Z M 518.11 140.23 L 509.69 141.13 L 505.05 141.45 L 500.32 141.60 L 495.66 141.51 L 491.46 141.12 L 488.73 140.63 L 486.45 139.96 L 484.55 139.15 L 482.87 138.03 L 481.73 136.71 L 481.05 135.16 L 480.94 133.50 L 481.39 131.93 L 482.46 130.36 L 483.88 128.99 L 485.76 127.62 L 488.17 126.24 L 492.02 124.46 L 496.48 122.76 L 505.69 119.86 L 514.10 117.48 L 518.28 116.55 L 521.88 116.21 L 524.98 116.38 L 528.00 117.03 L 530.49 118.05 L 532.54 119.41 L 534.27 121.16 L 535.54 123.13 L 536.39 125.39 L 536.66 127.59 L 536.35 129.65 L 535.47 131.66 L 534.13 133.45 L 532.27 135.14 L 529.81 136.74 L 527.14 138.00 L 523.99 139.06 L 520.30 139.90 L 518.11 140.23 Z M 373.03 153.87 L 372.77 152.10 L 372.88 150.43 L 373.34 148.82 L 374.18 147.23 L 375.71 145.37 L 377.82 143.62 L 380.63 142.00 L 383.64 140.75 L 387.17 139.75 L 391.31 139.03 L 399.73 138.13 L 404.37 137.81 L 409.10 137.66 L 413.76 137.75 L 417.96 138.14 L 420.69 138.63 L 422.97 139.29 L 424.87 140.11 L 426.55 141.23 L 427.69 142.54 L 428.37 144.10 L 428.48 145.76 L 428.03 147.34 L 426.96 148.91 L 425.54 150.27 L 423.67 151.64 L 421.25 153.02 L 417.40 154.80 L 412.94 156.50 L 403.73 159.40 L 395.32 161.78 L 391.77 162.61 L 388.29 163.01 L 385.28 162.97 L 382.67 162.57 L 380.16 161.78 L 378.06 160.71 L 376.33 159.37 L 374.87 157.74 L 373.78 155.91 L 373.03 153.87 Z M 474.80 124.36 L 473.88 122.98 L 473.48 121.39 L 473.62 119.49 L 474.17 117.60 L 475.11 115.48 L 476.51 113.08 L 478.95 109.61 L 481.96 105.91 L 488.49 98.79 L 494.58 92.52 L 497.75 89.63 L 500.69 87.54 L 503.46 86.13 L 506.40 85.18 L 509.07 84.82 L 511.53 84.97 L 513.89 85.62 L 515.99 86.70 L 517.85 88.22 L 518.95 89.63 L 519.70 91.13 L 520.10 92.75 L 520.17 94.55 L 519.77 96.93 L 518.82 99.50 L 517.20 102.31 L 515.22 104.89 L 512.66 107.52 L 509.44 110.22 L 503.14 114.82 L 495.89 119.59 L 492.12 121.77 L 488.49 123.59 L 484.87 125.03 L 481.71 125.86 L 479.59 126.07 L 477.78 125.92 L 476.15 125.36 L 474.80 124.36 Z M 395.83 130.16 L 391.74 128.87 L 388.46 127.37 L 385.86 125.68 L 383.57 123.60 L 381.92 121.47 L 380.82 119.27 L 380.20 116.89 L 380.09 114.54 L 380.48 112.17 L 381.14 110.51 L 382.07 109.12 L 383.27 107.95 L 384.80 107.00 L 387.05 106.15 L 389.76 105.69 L 393.00 105.68 L 396.22 106.11 L 399.78 107.01 L 403.73 108.45 L 411.47 111.89 L 415.65 113.93 L 419.82 116.16 L 423.81 118.57 L 427.26 121.01 L 429.37 122.80 L 431.02 124.52 L 432.26 126.17 L 433.15 127.98 L 433.48 129.69 L 433.29 131.37 L 432.57 132.86 L 431.39 133.98 L 429.86 134.77 L 427.85 135.30 L 424.68 135.57 L 420.77 135.42 L 416.71 134.91 L 412.31 134.13 L 403.62 132.14 L 395.83 130.16 Z M 406.72 100.19 L 403.82 97.03 L 401.73 94.08 L 400.33 91.32 L 399.38 88.37 L 399.01 85.71 L 399.17 83.25 L 399.81 80.88 L 400.89 78.79 L 402.42 76.93 L 403.82 75.82 L 405.32 75.08 L 406.95 74.67 L 408.75 74.61 L 411.12 75.00 L 413.69 75.96 L 416.50 77.57 L 419.08 79.56 L 421.72 82.12 L 424.41 85.34 L 429.40 92.18 L 432.00 96.04 L 434.49 100.06 L 436.74 104.14 L 438.51 107.98 L 439.45 110.59 L 440.01 112.89 L 440.26 114.95 L 440.13 116.95 L 439.56 118.60 L 438.56 119.97 L 437.43 120.78 L 436.12 121.21 L 434.27 121.23 L 432.12 120.74 L 429.56 119.60 L 425.86 117.32 L 421.74 114.18 L 417.71 110.70 L 413.76 107.03 L 406.72 100.19 Z M 463.50 115.75 L 462.00 115.01 L 460.86 113.83 L 460.04 112.13 L 459.57 110.21 L 459.31 107.90 L 459.33 105.12 L 459.71 100.90 L 460.47 96.19 L 462.56 86.76 L 464.71 78.29 L 466.00 74.20 L 467.50 70.91 L 469.19 68.31 L 471.27 66.02 L 473.40 64.37 L 475.60 63.28 L 477.98 62.65 L 480.33 62.54 L 482.70 62.93 L 484.36 63.59 L 485.75 64.52 L 486.92 65.73 L 487.87 67.25 L 488.72 69.51 L 489.18 72.21 L 489.18 75.45 L 488.76 78.68 L 487.86 82.24 L 486.42 86.18 L 482.45 95.04 L 480.05 99.82 L 477.45 104.43 L 474.60 108.72 L 471.80 112.11 L 469.71 114.02 L 467.75 115.22 L 465.89 115.86 L 464.69 115.94 L 463.50 115.75 Z M 433.34 81.07 L 432.41 76.88 L 432.07 73.28 L 432.24 70.19 L 432.89 67.17 L 433.91 64.67 L 435.27 62.62 L 437.01 60.90 L 438.99 59.62 L 441.25 58.78 L 443.01 58.52 L 444.69 58.62 L 446.30 59.08 L 447.89 59.93 L 449.75 61.46 L 451.49 63.57 L 453.12 66.37 L 454.36 69.38 L 455.36 72.91 L 456.09 77.05 L 456.98 85.47 L 457.31 90.11 L 457.46 94.84 L 457.36 99.50 L 456.98 103.70 L 456.49 106.43 L 455.82 108.71 L 455.01 110.61 L 453.89 112.29 L 452.57 113.43 L 451.02 114.11 L 450.67 114.19 L 449.06 114.18 L 447.52 113.63 L 445.97 112.49 L 444.63 111.02 L 443.29 109.12 L 441.94 106.70 L 440.20 102.86 L 438.53 98.44 L 435.68 89.36 L 433.34 81.07 Z" fill="#dea59e" fill-rule="nonzero" group-id="1,17" id="联合_6" node-id="16" stroke="none" target-height="160.61423" target-width="163.88763" target-x="372.7708" target-y="58.51523"></path><path d="M 487.88 133.77 L 488.35 138.19 L 488.24 142.45 L 487.57 146.59 L 486.37 150.61 L 484.69 154.37 L 482.54 157.90 L 479.96 161.13 L 477.00 163.99 L 473.64 166.50 L 469.98 168.55 L 466.02 170.11 L 461.70 171.19 L 457.28 171.65 L 453.02 171.55 L 448.89 170.87 L 444.87 169.67 L 441.11 168.00 L 437.58 165.84 L 434.34 163.26 L 431.48 160.30 L 428.98 156.94 L 426.93 153.28 L 425.37 149.32 L 424.29 145.01 L 423.82 140.59 L 423.93 136.33 L 424.60 132.19 L 425.81 128.17 L 427.48 124.41 L 429.63 120.88 L 432.21 117.65 L 435.17 114.79 L 438.54 112.28 L 442.19 110.23 L 446.16 108.67 L 450.47 107.59 L 454.89 107.13 L 459.15 107.23 L 463.29 107.91 L 467.31 109.11 L 471.07 110.78 L 474.60 112.94 L 477.83 115.52 L 480.69 118.48 L 483.20 121.84 L 485.25 125.50 L 486.81 129.46 L 487.88 133.77 Z" fill="#f5b332" fill-rule="nonzero" group-id="1,18" id="椭圆_1" node-id="17" stroke="none" target-height="64.52893" target-width="64.52893" target-x="423.82303" target-y="107.12561"></path><path d="M 390.93 827.94 L 384.74 825.89 L 378.07 823.46 L 367.75 819.36 L 356.43 814.47 L 342.28 807.79 L 332.65 802.90 L 322.14 797.19 L 310.69 790.59 L 299.46 783.69 L 287.67 775.91 L 275.29 767.20 L 263.24 758.09 L 250.96 748.05 L 238.43 737.04 L 229.38 728.50 L 220.37 719.42 L 211.39 709.77 L 202.45 699.53 L 193.96 689.09 L 185.67 678.05 L 177.58 666.40 L 169.69 654.11 L 163.80 644.18 L 158.13 633.84 L 152.68 623.08 L 147.47 611.86 L 142.48 600.19 L 137.97 588.57 L 133.78 576.48 L 129.91 563.90 L 126.36 550.82 L 123.16 537.22 L 120.48 523.81 L 118.22 509.87 L 116.39 495.37 L 115.00 480.29 L 114.06 464.61 L 115.78 480.63 L 117.91 496.00 L 120.43 510.77 L 123.33 524.95 L 126.60 538.56 L 130.39 552.37 L 134.48 565.62 L 138.86 578.34 L 143.51 590.54 L 148.44 602.24 L 155.23 616.87 L 162.32 630.74 L 169.71 643.88 L 177.38 656.33 L 185.61 668.61 L 193.99 680.21 L 202.53 691.17 L 211.20 701.49 L 220.33 711.63 L 229.46 721.15 L 238.58 730.08 L 247.69 738.43 L 260.31 749.22 L 272.62 759.00 L 284.64 767.82 L 296.99 776.25 L 308.71 783.73 L 319.83 790.33 L 331.18 796.63 L 341.57 802.05 L 351.05 806.66 L 364.98 812.93 L 376.10 817.48 L 386.21 821.25 L 392.74 823.47 L 398.78 825.32 Z" fill="#0d524d" fill-rule="nonzero" group-id="2,19" id="路径_155" node-id="19" stroke="none" target-height="363.32568" target-width="284.7212" target-x="114.0625" target-y="464.60986"></path><path d="M 119.47 492.24 L 121.10 474.23 L 123.06 457.24 L 125.36 440.76 L 127.73 426.16 L 130.29 412.37 L 132.62 401.31 L 135.05 391.38 L 136.92 385.02 L 137.93 381.18 L 138.49 377.25 L 138.60 373.20 L 138.28 369.17 L 137.54 365.32 L 136.38 361.63 L 134.79 358.12 L 132.85 355.06 L 130.53 352.39 L 128.53 350.68 L 126.35 349.31 L 123.95 348.27 L 121.32 347.57 L 117.69 347.24 L 114.12 347.48 L 110.58 348.29 L 107.19 349.64 L 103.97 351.50 L 100.91 353.91 L 98.20 356.73 L 95.81 360.03 L 93.73 363.88 L 92.16 367.97 L 91.06 372.53 L 90.46 377.65 L 89.68 392.07 L 89.59 400.54 L 90.08 410.61 L 90.79 417.46 L 92.01 425.03 L 93.78 433.41 L 95.99 441.64 L 99.00 450.67 L 102.88 460.58 L 106.06 467.73 L 109.86 475.37 L 114.31 483.53 L 119.47 492.24 Z" fill="#0d524d" fill-rule="nonzero" group-id="2,20" id="路径_156" node-id="20" stroke="none" target-height="145.0055" target-width="49.010742" target-x="89.5918" target-y="347.23648"></path><path d="M 142.60 596.17 L 131.50 587.85 L 120.82 580.26 L 110.25 573.11 L 100.72 566.97 L 91.56 561.36 L 84.06 557.02 L 77.15 553.30 L 72.57 551.10 L 69.87 549.70 L 67.34 548.01 L 64.98 546.00 L 62.85 543.74 L 61.04 541.34 L 59.53 538.80 L 58.34 536.09 L 57.60 533.41 L 57.26 530.72 L 57.39 528.05 L 58.05 525.49 L 59.25 523.00 L 60.92 520.76 L 62.88 518.85 L 65.17 517.25 L 67.67 516.01 L 70.38 515.14 L 73.33 514.63 L 76.32 514.53 L 79.43 514.87 L 82.69 515.65 L 85.82 516.86 L 88.99 518.57 L 92.21 520.86 L 100.83 527.80 L 105.69 532.10 L 111.18 537.55 L 114.71 541.47 L 118.41 546.05 L 122.27 551.35 L 125.82 556.84 L 129.42 563.18 L 133.08 570.47 L 136.32 577.92 L 139.50 586.45 L 142.60 596.17 Z" fill="#0d524d" fill-rule="nonzero" group-id="2,21" id="路径_160" node-id="21" stroke="none" target-height="81.63263" target-width="85.334206" target-x="57.26438" target-y="514.5337"></path><path d="M 192.84 681.90 L 181.99 677.11 L 171.62 672.83 L 161.44 668.91 L 152.31 665.63 L 143.59 662.71 L 136.50 660.54 L 130.02 658.77 L 125.78 657.82 L 123.26 657.17 L 120.82 656.25 L 118.47 655.02 L 116.26 653.56 L 114.29 651.91 L 112.54 650.07 L 111.03 648.05 L 109.89 645.95 L 109.10 643.78 L 108.69 641.52 L 108.74 639.26 L 109.26 636.96 L 110.24 634.76 L 111.50 632.80 L 113.06 631.05 L 114.96 629.50 L 117.78 627.89 L 120.96 626.82 L 124.58 626.28 L 127.31 626.30 L 130.16 626.71 L 133.16 627.53 L 136.33 628.82 L 144.85 632.95 L 149.74 635.60 L 155.36 639.08 L 159.06 641.67 L 163.02 644.78 L 167.26 648.46 L 171.28 652.34 L 175.51 656.94 L 179.96 662.31 L 184.10 667.90 L 188.39 674.39 L 192.84 681.90 Z" fill="#0d524d" fill-rule="nonzero" group-id="2,22" id="路径_161" node-id="22" stroke="none" target-height="55.619568" target-width="84.15103" target-x="108.69238" target-y="626.2821"></path><path d="M 260.18 754.32 L 250.53 753.50 L 241.39 752.96 L 232.49 752.64 L 224.58 752.53 L 217.07 752.59 L 211.03 752.80 L 205.56 753.15 L 202.04 753.55 L 198.86 753.72 L 195.65 753.33 L 192.56 752.44 L 189.76 751.09 L 187.31 749.29 L 185.44 747.15 L 184.52 745.51 L 183.96 743.76 L 183.75 741.84 L 184.04 739.26 L 184.83 736.85 L 186.16 734.57 L 187.91 732.58 L 190.08 730.91 L 192.74 729.53 L 195.59 728.64 L 198.81 728.24 L 202.48 728.37 L 212.39 729.65 L 218.32 730.84 L 225.49 732.94 L 230.27 734.74 L 235.59 737.21 L 241.50 740.43 L 247.15 744.03 L 253.35 748.61 L 260.18 754.32 Z" fill="#0d524d" fill-rule="nonzero" group-id="2,23" id="路径_162" node-id="23" stroke="none" target-height="26.079895" target-width="76.42264" target-x="183.7528" target-y="728.24133"></path><path d="M 134.28 567.78 L 138.28 554.00 L 142.37 541.08 L 146.65 528.60 L 150.70 517.59 L 154.78 507.25 L 158.27 499.00 L 161.66 491.63 L 164.08 486.96 L 165.44 484.12 L 166.47 481.15 L 167.17 478.02 L 167.53 474.83 L 167.53 471.72 L 167.20 468.68 L 166.49 465.71 L 165.44 463.03 L 164.04 460.60 L 162.27 458.47 L 160.13 456.77 L 157.60 455.46 L 154.82 454.65 L 152.01 454.29 L 149.12 454.39 L 146.28 454.92 L 143.50 455.89 L 140.75 457.30 L 138.22 459.09 L 135.86 461.30 L 133.65 463.98 L 131.82 466.92 L 130.27 470.31 L 129.03 474.20 L 126.24 485.30 L 124.89 491.88 L 123.75 499.80 L 123.27 505.23 L 123.07 511.32 L 123.18 518.10 L 123.66 524.84 L 124.63 532.33 L 126.15 540.62 L 128.11 548.79 L 130.79 557.82 L 134.28 567.78 Z" fill="#0d524d" fill-rule="nonzero" group-id="2,24" id="路径_157" node-id="24" stroke="none" target-height="113.48584" target-width="44.46338" target-x="123.07129" target-y="454.29236"></path><path d="M 214.43 709.61 L 214.07 698.00 L 214.02 687.01 L 214.22 676.31 L 214.61 666.81 L 215.20 657.82 L 215.86 650.58 L 216.67 644.05 L 217.39 639.84 L 217.74 637.31 L 217.80 634.76 L 217.55 632.17 L 217.02 629.63 L 216.23 627.23 L 215.19 624.97 L 213.87 622.87 L 212.35 621.07 L 210.63 619.55 L 208.68 618.35 L 206.56 617.58 L 204.21 617.21 L 201.79 617.29 L 199.48 617.72 L 197.26 618.51 L 195.10 619.66 L 192.53 621.64 L 190.32 624.15 L 188.46 627.24 L 187.44 629.73 L 186.74 632.47 L 186.37 635.50 L 186.37 638.85 L 187.00 648.11 L 187.61 653.52 L 188.73 659.90 L 189.74 664.21 L 191.13 668.95 L 192.95 674.15 L 195.05 679.22 L 197.73 684.74 L 201.06 690.75 L 204.69 696.55 L 209.12 702.82 L 214.43 709.61 Z" fill="#0d524d" fill-rule="nonzero" group-id="2,25" id="路径_158" node-id="25" stroke="none" target-height="92.40808" target-width="31.427734" target-x="186.37158" target-y="617.2068"></path><path d="M 334.97 801.96 L 331.33 791.81 L 328.12 782.13 L 325.24 772.63 L 322.86 764.13 L 320.80 756.02 L 319.31 749.44 L 318.15 743.45 L 317.58 739.53 L 316.86 736.05 L 315.52 732.71 L 313.66 729.65 L 311.37 727.03 L 309.60 725.55 L 307.75 724.40 L 305.79 723.55 L 303.73 723.06 L 301.63 722.98 L 299.45 723.33 L 296.68 724.41 L 294.25 725.99 L 292.12 728.11 L 290.42 730.60 L 289.18 733.44 L 288.42 736.71 L 288.24 739.20 L 288.41 741.81 L 288.95 744.59 L 289.91 747.55 L 293.12 755.54 L 295.22 760.14 L 298.03 765.46 L 301.39 770.83 L 305.85 776.82 L 309.15 780.69 L 313.10 784.79 L 317.76 789.15 L 322.63 793.22 L 328.34 797.49 L 334.97 801.96 Z" fill="#0d524d" fill-rule="nonzero" group-id="2,26" id="路径_159" node-id="26" stroke="none" target-height="78.983154" target-width="46.733887" target-x="288.23975" target-y="722.9817"></path><path d="M 533.62 829.79 L 527.87 831.74 L 521.53 833.67 L 511.55 836.41 L 500.37 839.12 L 486.09 842.08 L 476.17 843.85 L 465.13 845.50 L 452.90 847.01 L 440.66 848.17 L 427.51 849.00 L 413.40 849.45 L 399.32 849.43 L 384.54 848.85 L 369.02 847.67 L 357.49 846.40 L 345.68 844.69 L 333.58 842.54 L 321.18 839.93 L 308.99 836.92 L 296.62 833.35 L 284.06 829.21 L 271.28 824.49 L 258.82 819.31 L 246.26 813.46 L 233.57 806.90 L 220.75 799.61 L 210.87 793.48 L 200.96 786.83 L 191.02 779.63 L 181.04 771.88 L 171.02 763.55 L 161.50 755.06 L 151.99 745.94 L 142.49 736.17 L 132.99 725.72 L 123.49 714.57 L 133.76 725.53 L 143.98 735.79 L 154.15 745.38 L 164.26 754.31 L 174.34 762.62 L 184.91 770.77 L 195.40 778.34 L 205.79 785.36 L 216.11 791.83 L 226.35 797.78 L 239.61 804.87 L 252.68 811.21 L 265.55 816.86 L 278.26 821.82 L 291.28 826.35 L 304.04 830.29 L 316.54 833.66 L 328.80 836.48 L 341.29 838.91 L 353.43 840.88 L 365.23 842.41 L 376.71 843.51 L 392.16 844.47 L 406.81 844.84 L 420.72 844.66 L 434.65 844.01 L 447.58 843.01 L 459.57 841.68 L 471.55 840.00 L 482.33 838.21 L 491.99 836.32 L 505.88 833.17 L 516.71 830.32 L 526.36 827.45 L 532.47 825.44 L 538.01 823.43 Z" fill="#0e524d" fill-rule="nonzero" group-id="3,27" id="路径_155-2" node-id="28" stroke="none" target-height="134.88379" target-width="414.51416" target-x="123.49121" target-y="714.57007"></path><path d="M 140.66 732.51 L 131.76 718.17 L 123.69 704.42 L 116.15 690.86 L 109.72 678.65 L 103.89 666.95 L 99.43 657.40 L 95.66 648.63 L 93.48 642.85 L 92.08 639.42 L 90.29 636.18 L 88.10 633.10 L 85.60 630.28 L 82.88 627.83 L 79.95 625.73 L 76.80 624.01 L 73.63 622.82 L 70.41 622.13 L 67.95 621.98 L 65.56 622.19 L 63.19 622.76 L 60.84 623.71 L 57.94 625.50 L 55.42 627.68 L 53.24 630.28 L 51.47 633.18 L 50.12 636.37 L 49.19 639.89 L 48.76 643.51 L 48.83 647.31 L 49.44 651.35 L 50.57 655.27 L 52.31 659.29 L 54.74 663.44 L 62.24 674.62 L 66.94 680.97 L 72.95 688.20 L 77.33 692.90 L 82.49 697.86 L 88.51 703.11 L 94.77 707.99 L 102.08 713.04 L 110.53 718.24 L 119.21 722.96 L 129.21 727.72 L 140.66 732.51 Z" fill="#0e524d" fill-rule="nonzero" group-id="3,28" id="路径_156-2" node-id="29" stroke="none" target-height="110.52905" target-width="91.90117" target-x="48.75983" target-y="621.9773"></path><path d="M 218.58 796.54 L 205.65 796.58 L 193.43 796.92 L 181.55 797.52 L 171.01 798.30 L 161.03 799.26 L 153.01 800.24 L 145.78 801.35 L 141.13 802.28 L 138.33 802.76 L 135.50 802.91 L 132.61 802.74 L 129.76 802.26 L 127.06 801.49 L 124.51 800.44 L 122.11 799.09 L 120.05 797.51 L 118.29 795.69 L 116.89 793.63 L 115.94 791.36 L 115.44 788.83 L 115.42 786.22 L 115.82 783.70 L 116.62 781.22 L 117.79 778.89 L 119.31 776.72 L 121.23 774.69 L 123.40 772.94 L 125.90 771.44 L 128.77 770.20 L 131.78 769.34 L 135.10 768.84 L 138.78 768.73 L 149.10 769.07 L 155.14 769.54 L 162.28 770.52 L 167.11 771.45 L 172.43 772.79 L 178.29 774.57 L 184.01 776.66 L 190.25 779.37 L 197.07 782.75 L 203.66 786.47 L 210.82 791.04 L 218.58 796.54 Z" fill="#0e524d" fill-rule="nonzero" group-id="3,29" id="路径_160-2" node-id="30" stroke="none" target-height="34.18451" target-width="103.15739" target-x="115.42481" target-y="768.72675"></path><path d="M 304.12 832.20 L 293.35 834.72 L 283.23 837.35 L 273.44 840.15 L 264.80 842.82 L 256.67 845.55 L 250.17 847.91 L 244.35 850.22 L 240.66 851.90 L 237.27 853.20 L 233.65 853.92 L 229.97 854.04 L 226.45 853.56 L 224.19 852.90 L 222.17 851.98 L 220.35 850.81 L 218.78 849.35 L 217.55 847.64 L 216.65 845.64 L 216.05 842.73 L 216.06 839.84 L 216.70 836.89 L 217.90 834.11 L 219.67 831.52 L 222.07 829.08 L 224.11 827.56 L 226.46 826.27 L 229.15 825.20 L 232.24 824.38 L 240.91 822.68 L 246.03 821.90 L 252.18 821.34 L 258.67 821.21 L 266.30 821.64 L 271.47 822.28 L 277.20 823.33 L 283.53 824.84 L 289.75 826.67 L 296.59 829.10 L 304.12 832.20 Z" fill="#0e524d" fill-rule="nonzero" group-id="3,30" id="路径_161-2" node-id="31" stroke="none" target-height="32.83307" target-width="88.07895" target-x="216.04578" target-y="821.2056"></path><path d="M 394.92 848.34 L 387.28 853.15 L 380.17 857.87 L 373.36 862.62 L 367.40 866.99 L 357.46 874.79 L 353.59 878.13 L 351.19 880.40 L 349.16 882.12 L 346.93 883.51 L 344.46 884.58 L 341.87 885.28 L 339.38 885.54 L 336.95 885.38 L 334.65 884.74 L 332.69 883.61 L 330.99 881.94 L 329.76 879.86 L 329.00 877.62 L 328.71 875.18 L 328.90 872.71 L 329.57 870.24 L 330.78 867.73 L 332.40 865.47 L 334.58 863.36 L 337.38 861.40 L 345.48 856.78 L 350.57 854.35 L 357.08 851.89 L 361.66 850.55 L 367.01 849.40 L 373.22 848.48 L 379.44 847.99 L 386.63 847.92 L 394.92 848.34 Z" fill="#0e524d" fill-rule="nonzero" group-id="3,31" id="路径_162-2" node-id="32" stroke="none" target-height="37.617493" target-width="66.211365" target-x="328.70905" target-y="847.9199"></path><path d="M 196.46 780.06 L 191.70 767.56 L 187.49 755.64 L 183.68 743.94 L 180.52 733.47 L 177.75 723.48 L 175.72 715.37 L 174.11 707.98 L 173.29 703.15 L 172.71 700.27 L 171.81 697.47 L 170.57 694.75 L 169.05 692.17 L 167.31 689.85 L 165.35 687.78 L 163.15 685.96 L 160.86 684.56 L 158.46 683.53 L 155.95 682.94 L 153.40 682.87 L 150.78 683.32 L 148.25 684.27 L 145.96 685.59 L 143.87 687.28 L 142.05 689.27 L 140.52 691.55 L 139.26 694.15 L 138.38 696.90 L 137.86 699.87 L 137.73 703.10 L 138.01 706.33 L 138.76 709.72 L 140.02 713.32 L 144.17 723.15 L 146.87 728.81 L 150.46 735.34 L 153.15 739.66 L 156.41 744.30 L 160.31 749.29 L 164.45 754.04 L 169.37 759.07 L 175.16 764.40 L 181.20 769.39 L 188.27 774.61 L 196.46 780.06 Z" fill="#0e524d" fill-rule="nonzero" group-id="3,32" id="路径_157-2" node-id="33" stroke="none" target-height="97.19171" target-width="58.729736" target-x="137.72614" target-y="682.87"></path><path d="M 335.75 840.72 L 328.97 832.27 L 322.76 824.11 L 316.91 816.04 L 311.87 808.74 L 307.26 801.71 L 303.69 795.95 L 300.62 790.63 L 298.80 787.09 L 296.98 784.02 L 294.62 781.29 L 291.84 778.99 L 288.81 777.25 L 286.65 776.42 L 284.51 775.94 L 282.37 775.77 L 280.26 775.98 L 278.24 776.59 L 276.28 777.63 L 274.00 779.57 L 272.21 781.87 L 270.87 784.57 L 270.07 787.49 L 269.83 790.60 L 270.18 793.95 L 270.82 796.37 L 271.84 798.81 L 273.26 801.27 L 275.14 803.77 L 280.81 810.31 L 284.30 813.99 L 288.72 818.12 L 293.66 822.12 L 299.86 826.36 L 304.26 828.96 L 309.36 831.56 L 315.21 834.18 L 321.17 836.45 L 327.99 838.64 L 335.75 840.72 Z" fill="#0e524d" fill-rule="nonzero" group-id="3,33" id="路径_158-2" node-id="34" stroke="none" target-height="64.94867" target-width="65.92151" target-x="269.83337" target-y="775.7734"></path><path d="M 477.37 841.85 L 468.96 836.33 L 461.14 830.92 L 453.66 825.46 L 447.12 820.47 L 441.03 815.58 L 436.23 811.52 L 431.99 807.71 L 429.37 805.11 L 426.88 802.92 L 424.02 801.18 L 420.91 799.95 L 417.73 799.29 L 415.59 799.17 L 413.56 799.36 L 411.62 799.83 L 409.81 800.61 L 408.21 801.74 L 406.78 803.22 L 405.33 805.58 L 404.40 808.12 L 404.00 810.89 L 404.13 813.70 L 404.81 816.51 L 406.08 819.37 L 407.83 821.96 L 410.20 824.37 L 413.27 826.61 L 422.21 831.92 L 425.79 833.78 L 430.05 835.66 L 435.05 837.56 L 440.14 839.11 L 446.10 840.45 L 453.04 841.54 L 459.99 842.15 L 468.06 842.27 L 477.37 841.85 Z" fill="#0e524d" fill-rule="nonzero" group-id="3,34" id="路径_159-2" node-id="35" stroke="none" target-height="43.099976" target-width="73.374664" target-x="403.9979" target-y="799.1735"></path><path d="M 480.25 604.10 L 482.34 598.93 L 488.31 584.65 L 497.73 563.09 L 510.17 536.08 L 517.28 521.30 L 525.17 505.45 L 533.44 489.45 L 542.30 473.04 L 551.53 456.74 L 561.12 440.68 L 567.75 430.12 L 574.45 419.97 L 581.20 410.20 L 588.22 400.61 L 595.18 391.70 L 602.09 383.44 L 616.00 367.88 L 630.53 352.35 L 645.35 337.12 L 660.09 322.46 L 674.83 308.21 L 688.78 295.06 L 702.43 282.47 L 714.58 271.47 L 735.50 253.00 L 749.52 240.95 L 754.64 236.65 L 751.63 239.85 L 743.51 248.64 L 731.60 261.85 L 717.26 278.27 L 701.82 296.70 L 694.09 306.32 L 686.62 315.96 L 679.46 325.64 L 673.01 334.85 L 667.09 343.99 L 662.33 352.18 L 659.51 357.69 L 657.40 362.52 L 655.91 366.75 L 650.71 384.54 L 644.14 407.58 L 636.86 433.52 L 629.48 460.00 L 622.64 484.68 L 616.98 505.22 L 613.12 519.27 L 611.69 524.47 L 514.79 660.71 Z" fill="#0f5454" fill-rule="nonzero" group-id="4" id="路径_192" node-id="36" stroke="none" target-height="424.0581" target-width="274.38965" target-x="480.25" target-y="236.64795"></path><path d="M 233.31 501.52 L 233.54 496.83 L 234.22 484.01 L 235.37 464.95 L 236.97 441.54 L 239.03 415.67 L 241.55 389.23 L 243.00 376.24 L 244.53 364.10 L 246.23 352.37 L 247.98 342.17 L 249.96 332.65 L 251.89 325.34 L 255.28 314.97 L 258.87 305.71 L 262.64 297.47 L 266.56 290.17 L 270.24 284.35 L 274.06 279.27 L 278.02 274.85 L 282.12 271.06 L 286.37 267.83 L 290.21 265.49 L 294.21 263.58 L 298.39 262.09 L 302.78 261.03 L 307.40 260.39 L 312.28 260.19 L 314.96 260.44 L 317.80 261.08 L 320.82 262.14 L 324.05 263.68 L 328.11 266.07 L 332.37 269.04 L 336.86 272.66 L 343.32 278.57 L 349.90 285.32 L 356.26 292.44 L 362.38 299.79 L 368.22 307.24 L 373.48 314.26 L 382.40 326.86 L 388.35 335.78 L 390.51 339.16 L 390.51 415.17 L 409.43 370.35 L 411.80 374.18 L 418.20 384.72 L 427.54 400.53 L 438.75 420.21 L 444.66 430.96 L 450.74 442.32 L 456.69 453.85 L 462.44 465.44 L 467.89 477.04 L 472.76 488.14 L 477.15 499.11 L 480.63 509.01 L 482.61 515.60 L 484.03 521.45 L 484.97 526.61 L 484.90 527.19 L 483.94 530.36 L 480.76 539.52 L 476.28 551.90 L 471.33 565.33 L 466.76 577.63 L 463.40 586.60 L 462.09 590.08 L 510.80 554.66 L 511.61 560.18 L 513.57 575.41 L 515.96 598.30 L 517.08 611.69 L 518.08 626.80 L 518.80 642.37 L 519.20 658.90 L 519.16 675.62 L 518.61 692.55 L 517.92 703.84 L 516.92 714.89 L 515.61 725.70 L 513.93 736.47 L 511.88 746.67 L 509.48 756.34 L 507.32 763.56 L 504.93 770.29 L 502.32 776.57 L 499.50 782.41 L 496.25 788.13 L 492.74 793.26 L 488.98 797.83 L 484.97 801.89 L 475.34 810.37 L 465.85 818.25 L 456.50 825.55 L 446.94 832.61 L 437.75 839.02 L 428.93 844.83 L 415.68 852.96 L 403.79 859.64 L 392.24 865.51 L 382.58 869.89 L 373.48 873.45 L 366.82 875.52 L 362.49 876.44 L 359.71 876.65 L 358.04 876.43 L 355.83 875.69 L 351.44 873.98 L 346.48 871.76 L 339.86 868.36 L 332.93 864.27 L 324.83 858.79 L 319.48 854.74 L 313.83 850.00 L 307.85 844.51 L 302.17 838.75 L 296.38 832.19 L 290.46 824.77 L 284.97 817.06 L 279.54 808.43 L 274.18 798.80 L 270.56 791.48 L 267.07 783.57 L 263.72 775.04 L 260.53 765.84 L 257.78 756.73 L 255.26 746.94 L 253.01 736.42 L 251.02 725.14 L 245.84 690.36 L 241.89 661.57 L 238.54 634.68 L 236.18 613.03 L 234.36 593.03 L 233.28 577.52 L 232.66 563.42 L 232.53 553.07 L 232.80 543.87 L 233.31 537.68 L 233.59 537.77 L 235.85 539.05 L 242.38 543.07 L 251.32 548.70 L 261.06 554.91 L 270.00 560.63 L 276.53 564.83 L 279.07 566.47 Z" fill="#6aa68a" fill-rule="nonzero" group-id="5,35" id="路径_193" node-id="38" stroke="none" target-height="616.4618" target-width="286.66504" target-x="232.53223" target-y="260.19104"></path><path d="M 311.54 300.04 L 310.45 307.65 L 309.62 316.98 L 309.14 328.27 L 309.03 339.54 L 309.21 352.21 L 309.72 366.40 L 310.95 388.04 L 312.79 412.12 L 315.08 436.83 L 317.85 463.11 L 320.97 489.75 L 324.43 517.09 L 328.13 544.49 L 332.02 571.72 L 336.07 598.73 L 340.13 624.71 L 348.28 673.75 L 355.96 716.52 L 359.59 735.42 L 362.69 750.72 L 365.71 764.61 L 367.97 774.04 L 369.64 780.02 L 370.69 782.99 L 371.32 784.17 L 372.38 785.22 L 373.20 785.64 L 373.86 785.64 L 374.48 785.29 L 375.17 784.41 L 375.86 782.90 L 376.51 780.53 L 377.16 776.77 L 377.65 771.98 L 378.14 761.70 L 378.20 751.80 L 378.06 744.33 L 377.96 741.37 L 375.98 732.87 L 370.60 708.89 L 362.71 671.73 L 358.21 649.50 L 353.18 623.66 L 348.16 596.71 L 342.88 566.99 L 337.78 536.46 L 332.70 504.01 L 327.94 471.03 L 323.50 436.99 L 319.54 402.71 L 316.15 368.24 L 314.25 345.21 L 312.72 322.48 L 311.54 300.04 Z" fill="#ffffff" fill-rule="nonzero" group-id="5,36" id="路径_194" node-id="39" stroke="none" target-height="485.60132" target-width="69.168945" target-x="309.02637" target-y="300.04297"></path><path d="M 742.17 550.38 L 747.97 546.09 L 754.49 541.55 L 765.07 534.62 L 777.12 527.19 L 793.01 518.06 L 804.18 512.01 L 816.91 505.50 L 831.33 498.52 L 845.88 491.89 L 861.94 485.08 L 879.59 478.08 L 897.37 471.57 L 916.59 465.16 L 937.33 458.85 L 952.84 454.55 L 969.12 450.46 L 986.20 446.58 L 1004.09 442.92 L 993.42 446.33 L 982.84 450.25 L 972.36 454.70 L 961.95 459.69 L 951.79 465.07 L 941.74 470.87 L 931.81 477.08 L 921.99 483.71 L 909.24 493.00 L 896.77 502.81 L 884.58 513.13 L 872.72 523.84 L 861.24 534.82 L 850.12 546.07 L 839.28 557.61 L 828.91 569.14 L 818.99 580.68 L 809.30 592.43 L 800.17 603.90 L 791.59 615.09 L 779.23 631.88 L 768.30 647.42 L 758.10 662.57 L 749.52 675.81 L 741.66 688.39 L 735.61 698.41 L 726.99 713.33 L 724.03 718.72 L 683.65 624.25 Z" fill="#b7d99d" fill-rule="nonzero" group-id="6" id="路径_195" node-id="40" stroke="none" target-height="275.79993" target-width="320.4414" target-x="683.6494" target-y="442.92102"></path><path d="M 700.52 546.70 L 703.30 546.80 L 710.51 547.07 L 720.39 547.46 L 731.21 547.92 L 741.26 548.42 L 748.78 548.90 L 751.40 549.17 L 752.05 549.32 L 751.57 551.18 L 749.71 555.71 L 743.81 567.94 L 735.55 583.95 L 726.12 601.67 L 716.71 619.04 L 708.51 634.00 L 702.71 644.49 L 700.52 648.45 L 703.19 645.17 L 710.35 636.38 L 720.73 623.65 L 733.09 608.57 L 746.13 592.69 L 758.61 577.61 L 769.26 564.88 L 776.81 556.09 L 779.43 553.26 L 780.00 552.81 L 785.15 554.10 L 797.55 557.84 L 805.50 560.50 L 814.90 563.88 L 824.57 567.66 L 834.87 572.06 L 845.12 576.90 L 855.16 582.22 L 861.69 586.07 L 867.78 590.07 L 873.45 594.20 L 878.83 598.68 L 883.47 603.22 L 887.42 607.83 L 878.79 612.74 L 864.74 620.25 L 847.29 629.36 L 828.47 639.06 L 810.30 648.35 L 794.82 656.23 L 784.04 661.69 L 780.00 663.74 L 784.09 662.37 L 795.06 658.74 L 810.95 653.50 L 829.83 647.32 L 849.72 640.87 L 868.69 634.82 L 884.78 629.83 L 896.04 626.59 L 899.81 625.73 L 900.52 625.74 L 902.01 627.33 L 903.80 629.89 L 905.96 633.75 L 907.82 637.71 L 909.74 642.47 L 911.73 648.16 L 913.45 653.90 L 915.01 660.17 L 916.41 667.01 L 917.48 673.89 L 918.21 681.00 L 918.57 688.34 L 918.50 695.67 L 917.91 702.95 L 916.81 710.17 L 915.59 715.51 L 914.00 720.68 L 912.04 725.69 L 909.69 730.55 L 903.90 730.85 L 895.82 730.94 L 886.93 730.88 L 878.74 730.74 L 872.73 730.61 L 870.39 730.55 L 900.08 753.69 L 896.85 758.21 L 893.16 762.99 L 887.20 770.24 L 880.32 778.04 L 871.25 787.54 L 864.79 793.87 L 857.43 800.63 L 849.10 807.83 L 840.56 814.72 L 831.16 821.73 L 820.85 828.85 L 810.28 835.54 L 798.88 842.04 L 786.60 848.35 L 777.26 852.67 L 767.47 856.73 L 757.21 860.53 L 746.46 864.05 L 735.69 867.09 L 724.46 869.72 L 712.75 871.92 L 700.52 873.69 L 681.88 875.63 L 664.91 876.88 L 649.50 877.51 L 634.02 877.64 L 620.11 877.32 L 607.64 876.59 L 595.17 875.43 L 584.15 874.03 L 574.48 872.43 L 564.83 870.49 L 556.56 868.53 L 549.52 866.56 L 539.54 863.31 L 532.29 860.50 L 526.01 857.67 L 522.30 855.74 L 519.08 853.82 L 586.63 663.73 Z" fill="#65a364" fill-rule="nonzero" group-id="7" id="路径_196" node-id="41" stroke="none" target-height="330.94458" target-width="399.49707" target-x="519.0762" target-y="546.69995"></path><path d="M 516.41 565.82 L 520.10 562.47 L 530.10 553.48 L 544.81 540.47 L 562.61 525.05 L 581.90 508.82 L 591.69 500.83 L 601.08 493.39 L 610.32 486.33 L 618.54 480.37 L 626.44 475.06 L 632.66 471.37 L 640.86 467.17 L 648.51 463.73 L 655.64 461.02 L 662.31 458.95 L 667.96 457.63 L 673.24 456.84 L 678.21 456.53 L 682.88 456.67 L 687.29 457.23 L 691.66 458.29 L 695.80 459.87 L 699.73 461.98 L 703.48 464.63 L 707.07 467.87 L 708.93 470.25 L 710.54 473.28 L 711.88 477.11 L 712.81 481.07 L 713.52 485.56 L 713.97 490.63 L 714.20 498.36 L 713.99 506.74 L 713.42 515.23 L 712.56 523.74 L 711.50 532.15 L 710.34 539.93 L 707.97 553.60 L 706.07 563.05 L 705.30 566.58 L 660.32 606.47 L 698.23 590.78 L 697.08 595.56 L 693.83 608.44 L 688.81 627.21 L 682.34 649.67 L 678.68 661.56 L 674.76 673.62 L 670.61 685.56 L 666.38 696.85 L 661.89 707.72 L 657.52 717.16 L 654.36 723.20 L 651.36 728.23 L 648.53 732.35 L 648.11 732.66 L 645.47 734.04 L 637.61 737.79 L 626.85 742.77 L 615.13 748.11 L 604.38 752.98 L 596.51 756.52 L 593.46 757.89 L 637.17 760.17 L 633.27 764.55 L 622.34 776.33 L 614.89 784.05 L 605.55 793.43 L 595.53 803.13 L 584.08 813.78 L 572.07 824.43 L 559.10 835.31 L 550.20 842.40 L 541.10 849.28 L 531.79 855.96 L 522.29 862.35 L 512.80 868.24 L 503.31 873.65 L 493.60 878.61 L 484.12 882.82 L 474.85 886.30 L 467.70 888.50 L 460.78 890.14 L 454.08 891.26 L 447.56 891.87 L 436.29 892.22 L 426.61 892.15 L 418.36 891.71 L 410.11 890.87 L 403.18 889.78 L 397.42 888.48 L 391.72 886.78 L 387.05 884.99 L 383.26 883.13 L 379.64 880.92 L 376.72 878.74 L 374.43 876.60 L 371.47 873.09 L 369.46 869.85 L 367.92 866.59 L 366.89 863.84 L 365.25 859.51 L 364.25 857.50 L 362.39 853.21 L 360.54 848.15 L 358.47 841.02 L 357.31 835.99 L 356.30 830.16 L 355.48 823.45 L 355.04 816.75 L 355.01 809.29 L 355.45 801.03 L 356.39 792.85 L 358.00 783.96 L 360.37 774.29 L 362.50 767.26 L 365.17 759.84 L 368.40 752.01 L 372.25 743.75 L 376.35 735.89 L 381.16 727.66 L 386.72 719.01 L 393.09 709.93 L 410.85 686.10 L 425.74 666.56 L 439.85 648.51 L 451.42 634.18 L 462.31 621.15 L 470.94 611.25 L 479.01 602.45 L 485.13 596.19 L 490.79 590.84 L 494.79 587.45 L 494.90 587.66 L 495.46 589.75 L 496.90 595.99 L 498.77 604.61 L 500.78 614.03 L 502.60 622.70 L 503.93 629.05 L 504.44 631.52 Z" fill="#b7d99d" fill-rule="nonzero" group-id="8,37" id="路径_193-2" node-id="43" stroke="none" target-height="435.68945" target-width="359.18457" target-x="355.01416" target-y="456.52734"></path><path d="M 648.81 527.27 L 643.23 531.45 L 636.71 536.90 L 629.14 543.83 L 617.88 554.96 L 604.93 568.65 L 591.75 583.32 L 577.39 599.94 L 562.88 617.25 L 547.67 635.89 L 532.45 654.95 L 516.99 674.70 L 501.63 694.63 L 486.50 714.57 L 457.41 753.69 L 430.88 790.28 L 408.11 822.53 L 390.28 848.64 L 383.22 859.40 L 378.57 866.81 L 374.99 873.12 L 374.17 875.23 L 375.76 877.61 L 377.16 879.25 L 378.38 880.32 L 380.33 881.52 L 381.64 881.96 L 382.95 882.08 L 387.06 875.52 L 398.74 857.17 L 417.04 829.05 L 440.97 793.17 L 454.53 773.25 L 469.57 751.52 L 485.18 729.37 L 501.88 706.13 L 519.05 682.76 L 536.93 659.00 L 555.18 635.40 L 573.74 612.14 L 586.33 596.81 L 598.87 581.95 L 611.36 567.56 L 624.09 553.35 L 636.57 539.93 L 648.81 527.27 Z" fill="#ffffff" fill-rule="nonzero" group-id="8,38" id="路径_194-2" node-id="44" stroke="none" target-height="354.81152" target-width="274.63965" target-x="374.16943" target-y="527.26953"></path></g></svg>