<?xml version="1.0" standalone="no"?><!DOCTYPE svg PUBLIC "-//W3C//DTD SVG 1.1//EN" "http://www.w3.org/Graphics/SVG/1.1/DTD/svg11.dtd"><svg t="1769308905048" class="icon" viewBox="0 0 1024 1024" version="1.1" xmlns="http://www.w3.org/2000/svg" p-id="8251" xmlns:xlink="http://www.w3.org/1999/xlink" width="200" height="200"><path d="M928 896a128 128 0 0 1-128 128H224a128 128 0 0 1-128-128V128a128 128 0 0 1 128-128h448l256 256v640z" fill="#FF9F00" p-id="8252"></path><path d="M688.64 763.744a15.36 15.36 0 0 1 15.36 15.36v8.736a15.36 15.36 0 0 1-15.36 15.36H335.36a15.36 15.36 0 0 1-15.36-15.36v-8.736a15.36 15.36 0 0 1 15.36-15.36h353.28z m-326.464-93.824l54.336 54.304-61.664 16.768a7.68 7.68 0 0 1-9.408-9.408l16.736-61.664z m240.096-250.944l65.184 65.184-37.12 35.424 7.04 7.008 17.536-16.384 13.056 14.08-80.704 75.392-13.12-14.048 51.68-48.256-6.88-6.88-194.08 185.376-54.304-54.304 231.712-242.56z m82.816-17.6a46.08 46.08 0 0 1 0 65.152l-6.496 6.464-65.152-65.184 6.464-6.464a46.08 46.08 0 0 1 65.184 0z" fill="#111F2C" fill-opacity=".56" p-id="8253"></path><path d="M688.64 760.544a15.36 15.36 0 0 1 15.36 15.36v8.736a15.36 15.36 0 0 1-15.36 15.36H335.36a15.36 15.36 0 0 1-15.36-15.36v-8.736a15.36 15.36 0 0 1 15.36-15.36h353.28z m-326.464-93.824l54.336 54.304-61.664 16.768a7.68 7.68 0 0 1-9.408-9.408l16.736-61.664z m240.096-250.944l65.184 65.184-37.12 35.424 7.04 7.008 17.536-16.384 13.056 14.08-80.704 75.392-13.12-14.048 51.68-48.256-6.88-6.88-194.08 185.376-54.304-54.304 231.712-242.56z m82.816-17.6a46.08 46.08 0 0 1 0 65.152l-6.496 6.464-65.152-65.184 6.464-6.464a46.08 46.08 0 0 1 65.184 0z" fill="#FFFFFF" p-id="8254"></path><path d="M671.968 0l256 256h-191.2a64 64 0 0 1-64-63.744L671.968 0z" fill="#FFFFFF" opacity=".48" p-id="8255"></path></svg>